<?xml version="1.0" encoding="UTF-8"?>
<svg id="Capa_1" data-name="Capa 1" xmlns="http://www.w3.org/2000/svg" viewBox="0 0 506.67 342.76">
  <defs>
    <style>
      .cls-1 {
        opacity: .81;
      }

      .cls-2 {
        letter-spacing: -.04em;
      }

      .cls-3 {
        fill: none;
        stroke-width: .75px;
      }

      .cls-3, .cls-4 {
        stroke: #1f140f;
        stroke-miterlimit: 10;
      }

      .cls-5 {
        letter-spacing: 0em;
      }

      .cls-6 {
        letter-spacing: -.02em;
      }

      .cls-7 {
        fill: #b2548c;
        stroke-width: 0px;
      }

      .cls-8 {
        font-size: 65px;
      }

      .cls-8, .cls-4, .cls-9, .cls-10 {
        fill: #1f140f;
      }

      .cls-8, .cls-9 {
        font-family: Serenity-DemiBold, Serenity;
        font-weight: 300;
      }

      .cls-11 {
        letter-spacing: 0em;
      }

      .cls-12 {
        letter-spacing: -.03em;
      }

      .cls-9 {
        font-size: 63.39px;
      }

      .cls-13 {
        letter-spacing: -.03em;
      }

      .cls-14 {
        letter-spacing: -.03em;
      }

      .cls-15 {
        letter-spacing: -.02em;
      }

      .cls-16 {
        letter-spacing: -.04em;
      }

      .cls-10 {
        font-family: Serenity-ExtraLight, Serenity;
        font-size: 24px;
        font-weight: 200;
      }

      .cls-17 {
        letter-spacing: 0em;
      }
    </style>
  </defs>
  <g id="_Repetición_radial_" data-name="&amp;lt;Repetición radial&amp;gt;">
    <g class="cls-1">
      <path class="cls-7" d="M74.36,144.51c-10.31,6.98-20.9,12.93-33.06,15.54-8.82,1.9-17.68,2.99-26.35-.43-7.41-2.92-12.81-8.08-14.49-16.11-2.17-10.33,3.53-20.6,13.38-24.68,6.85-2.84,14.06-3.42,21.42-3.2,10.27.3,20.09,2.59,29.68,6.1,5.25,1.92,10.18,4.51,14.98,7.34,1.08.64,2.09,1.14,3.44.62,9.59-3.68,19.28-2.76,28.98-.47,1.75.41,3.49.9,5.22,1.38,1.61.45,3.01,1.31,4.18,2.48.97.98,2.36,2.15,1.51,3.54-.78,1.25-2.25.15-3.37-.14-8.45-2.23-16.93-3.83-25.67-1.78-1.08.25-2.22.4-3.3,1.31,9.26,6.26,18.67,11.79,29.22,15.14,8.08,2.57,16.29,4.28,24.85,3.9,7.71-.34,14.22-5.15,15.54-11.63,2.22-10.93-3.67-18.96-14.78-20.56-7.28-1.05-14.35.29-21.47,1.23-3.19.42-6.39.53-9.55.15-5.68-.68-9.21-4.13-10.61-9.78-.99-4.02-1.08-8.1-1.01-12.2.02-1.36-.33-2.32-1.69-2.91-5.08-2.19-9.55-5.37-13.83-8.83-.79-.63-1.46-1.29-2.51-.29-9.78,9.23-21.95,13.41-34.73,16.15-5.42,1.16-10.86,2.56-16.5,1.84-8.79-1.12-12.8-7.11-10.59-15.69,2.03-7.9,6.62-14.33,11.53-20.64,9.66-12.41,22.65-19.23,37.6-23.02,7.18-1.82,14.03-4.49,19.98-9.1,7.17-5.55,10.15-13.67,7.84-21.7-1.67-5.8-5.82-9.04-11.85-9.26-13.2-.49-22.44,9.47-20.81,22.59.43,3.48,1.88,6.59,4.65,8.94,1.06.9,2.12,1.82,2.73,3.12.25.53.49,1.08-.02,1.58-.4.39-.92.32-1.39.18-.39-.11-.78-.27-1.11-.5-7.5-5.19-12.4-12.1-12.39-21.43.02-14.16,13.67-24.4,27.21-20.28,11.35,3.45,18.99,10.9,20.71,23.09,1.06,7.53-1.93,13.79-7.65,18.7-5.57,4.79-12.15,7.64-19.12,9.74-8.22,2.48-16.63,4.51-23.96,9.27-11.95,7.77-20.58,18.33-26.05,31.47-.81,1.95-1.34,4-1.21,6.41,3.02.02,5.91-.2,8.79-.71,10.45-1.83,20.63-4.5,29.99-9.7,3.24-1.8,6.15-4.03,8.96-6.44,1.77-1.52,2.09-2.74.56-4.7-1.97-2.53-3.19-5.51-3.83-8.69-.93-4.65,1.81-8.14,6.55-8.31,8.91-.31,15.03,8.4,11.71,16.61-.99,2.45-2.65,4.49-4.08,6.95,4,3.93,8.76,6.44,14.29,8.54.25-3.37.61-6.42.68-9.47.14-6.06.79-12.07,1.61-18.07.21-1.52.7-3.04,1.31-4.46,1.89-4.38,5.44-5.57,9.6-3.19,4.18,2.39,7.34,6.01,10.7,9.35,7.19,7.13,13.66,14.82,17.18,24.55.76,2.09,1.3,4.23,1.6,6.42.62,4.51-1.45,7.25-5.97,7.84-5.72.74-11.22-.78-16.73-1.91-4.05-.84-8.04-2.01-12.41-3.12-.17,4.35-.65,8.4.58,12.37.57,1.85,2.2,2.25,3.96,2.24,3.78-.03,7.47-.86,11.2-1.35,9.75-1.26,19.18-.57,27.72,4.78,7.54,4.72,12.71,11.18,14.05,20.3,1.38,9.33-3.6,16.92-12.75,19.24-8.14,2.06-16.09.54-24.02-1.26-14.96-3.4-28.1-10.71-40.49-19.41-3.49-2.45-6.14-2.5-9.36-.04-2.14,1.63-4.53,2.93-6.97,4.47M24.37,123.74c-9.82,2.67-16.14,8.71-17.06,19.08-.69,7.81,1.57,11.05,8.29,11.93,7.15.93,14.2.21,21.16-1.47,8.68-2.09,16.65-5.76,24.12-10.63,5.38-3.5,10.86-6.86,16.27-10.27-.38-.79-.95-.93-1.45-1.19-6.88-3.56-14.21-5.81-21.77-7.37-9.72-2-19.44-2.38-29.57-.08M129.51,77.56c-3.24-4.02-7.09-7.47-10.69-11.14-1.48-1.51-2.74-1.07-3.95.29-1.76,1.99-2.3,4.46-2.66,6.99-1.06,7.37-1.28,14.8-1.82,22.22-.08,1.09.06,2.01,1.25,2.32,6.89,1.77,13.82,3.52,20.96,3.58,4.84.04,6.35-2.24,5.49-6.99-1.17-6.46-4.43-11.89-8.58-17.26M83.11,78.33c1.73-1.85,2.69-4.1,3.23-6.51.38-1.69-.34-2.3-2.05-1.65-3.14,1.19-3.79,4.76-1.18,8.17Z"/>
    </g>
  </g>
  <text class="cls-9" transform="translate(143.17 51.73)"><tspan x="0" y="0">R</tspan><tspan class="cls-13" x="36.7" y="0">EV</tspan><tspan x="102.06" y="0">O</tspan><tspan class="cls-2" x="147.95" y="0">L</tspan><tspan class="cls-17" x="174.2" y="0">UCIÓN</tspan><tspan x="59.71" y="76.07">INTERNA</tspan></text>
  <line class="cls-4" x1="207.2" y1="69.52" x2="442.95" y2="69.52"/>
  <text class="cls-10" transform="translate(247.66 161.85)"><tspan class="cls-6" x="0" y="0">C</tspan><tspan class="cls-12" x="13.97" y="0">OA</tspan><tspan x="43.87" y="0">CHING 10</tspan><tspan class="cls-15" x="133.89" y="0">3</tspan><tspan class="cls-11" x="144.21" y="0">2</tspan></text>
  <line class="cls-3" x1="207.2" y1="155.52" x2="244.69" y2="155.52"/>
  <line class="cls-3" x1="405.45" y1="155.52" x2="442.95" y2="155.52"/>
  <text class="cls-8" transform="translate(137.87 250.52)"><tspan x="0" y="0">R</tspan><tspan class="cls-14" x="37.63" y="0">EV</tspan><tspan x="104.65" y="0">O</tspan><tspan class="cls-16" x="151.71" y="0">L</tspan><tspan class="cls-5" x="178.62" y="0">UCIÓN</tspan><tspan x="61.23" y="78">INTERNA</tspan></text>
  <line class="cls-4" x1="203.52" y1="268.1" x2="445.25" y2="268.1"/>
  <g id="_Repetición_radial_-2" data-name="&amp;lt;Repetición radial&amp;gt;">
    <g class="cls-1">
      <path class="cls-7" d="M80.67,324.04c-9.06,6.14-18.38,11.37-29.08,13.67-7.76,1.67-15.55,2.63-23.17-.38-6.52-2.57-11.26-7.11-12.75-14.17-1.91-9.08,3.1-18.12,11.77-21.7,6.03-2.5,12.37-3.01,18.83-2.81,9.03.27,17.67,2.28,26.1,5.36,4.61,1.69,8.95,3.96,13.17,6.45.95.56,1.84,1.01,3.03.55,8.44-3.24,16.96-2.43,25.48-.41,1.54.36,3.07.79,4.59,1.22,1.42.39,2.65,1.15,3.68,2.18.85.86,2.08,1.89,1.32,3.11-.68,1.1-1.98.13-2.97-.13-7.43-1.96-14.89-3.37-22.58-1.57-.95.22-1.95.36-2.9,1.15,8.14,5.51,16.42,10.37,25.7,13.32,7.11,2.26,14.33,3.76,21.85,3.43,6.78-.3,12.51-4.53,13.67-10.23,1.96-9.61-3.23-16.67-13-18.08-6.4-.92-12.62.25-18.88,1.08-2.8.37-5.62.46-8.4.13-5-.6-8.1-3.63-9.33-8.6-.87-3.54-.95-7.12-.89-10.73.02-1.2-.29-2.04-1.49-2.56-4.47-1.93-8.4-4.72-12.16-7.76-.69-.56-1.28-1.13-2.21-.26-8.6,8.12-19.3,11.79-30.54,14.2-4.76,1.02-9.55,2.25-14.51,1.62-7.73-.98-11.26-6.25-9.32-13.8,1.79-6.94,5.83-12.6,10.14-18.15,8.49-10.92,19.92-16.91,33.07-20.24,6.31-1.6,12.34-3.95,17.57-8,6.31-4.88,8.92-12.02,6.89-19.08-1.47-5.1-5.12-7.95-10.42-8.15-11.61-.43-19.73,8.33-18.3,19.86.38,3.06,1.65,5.8,4.09,7.86.93.79,1.86,1.6,2.4,2.74.22.46.43.95-.02,1.39-.35.35-.81.28-1.22.16-.34-.1-.69-.24-.98-.44-6.6-4.57-10.9-10.64-10.89-18.84.02-12.45,12.02-21.46,23.93-17.84,9.98,3.03,16.7,9.59,18.21,20.31.93,6.62-1.7,12.13-6.72,16.45-4.9,4.21-10.69,6.72-16.81,8.57-7.23,2.18-14.63,3.96-21.07,8.15-10.51,6.83-18.1,16.12-22.91,27.68-.71,1.71-1.18,3.52-1.07,5.63,2.65.02,5.19-.18,7.73-.62,9.19-1.61,18.14-3.96,26.37-8.53,2.85-1.58,5.41-3.54,7.88-5.66,1.56-1.33,1.84-2.41.49-4.14-1.73-2.23-2.8-4.85-3.37-7.65-.82-4.09,1.6-7.16,5.76-7.31,7.84-.27,13.22,7.39,10.29,14.6-.87,2.16-2.33,3.95-3.59,6.11,3.52,3.45,7.7,5.66,12.57,7.51.22-2.96.54-5.64.6-8.33.12-5.33.7-10.62,1.42-15.89.18-1.34.61-2.68,1.15-3.92,1.66-3.85,4.79-4.89,8.44-2.8,3.67,2.1,6.46,5.29,9.41,8.22,6.32,6.27,12.01,13.03,15.11,21.59.67,1.84,1.15,3.72,1.41,5.64.54,3.96-1.28,6.38-5.25,6.89-5.03.65-9.87-.68-14.71-1.68-3.56-.74-7.07-1.77-10.91-2.74-.15,3.83-.57,7.39.51,10.88.5,1.63,1.93,1.98,3.48,1.97,3.33-.03,6.57-.76,9.85-1.18,8.58-1.11,16.86-.5,24.38,4.21,6.63,4.15,11.17,9.83,12.36,17.85,1.21,8.21-3.16,14.88-11.21,16.92-7.16,1.81-14.15.47-21.13-1.11-13.16-2.99-24.72-9.42-35.61-17.07-3.07-2.16-5.4-2.2-8.23-.04-1.88,1.43-3.99,2.58-6.13,3.93M36.71,305.78c-8.64,2.35-14.2,7.66-15,16.78-.6,6.87,1.38,9.72,7.29,10.49,6.29.81,12.49.18,18.61-1.29,7.63-1.84,14.64-5.07,21.21-9.35,4.73-3.08,9.55-6.03,14.31-9.03-.33-.7-.84-.82-1.28-1.05-6.05-3.13-12.49-5.11-19.14-6.48-8.55-1.76-17.1-2.09-26-.07M129.17,265.17c-2.85-3.54-6.24-6.57-9.4-9.8-1.3-1.33-2.41-.94-3.47.26-1.55,1.75-2.02,3.92-2.34,6.15-.93,6.48-1.13,13.02-1.6,19.54-.07.96.05,1.77,1.1,2.04,6.06,1.56,12.15,3.1,18.43,3.14,4.26.03,5.59-1.97,4.83-6.14-1.03-5.68-3.89-10.45-7.55-15.18M88.36,265.84c1.52-1.62,2.36-3.61,2.84-5.73.33-1.48-.3-2.02-1.8-1.45-2.76,1.05-3.33,4.19-1.03,7.18Z"/>
    </g>
  </g>
</svg>