<?xml version="1.0" encoding="UTF-8"?>
<svg id="Capa_1" data-name="Capa 1" xmlns="http://www.w3.org/2000/svg" viewBox="0 0 502.85 166.2">
  <defs>
    <style>
      .cls-1 {
        opacity: .81;
      }

      .cls-2 {
        letter-spacing: -.04em;
      }

      .cls-3 {
        fill: none;
        stroke-width: .75px;
      }

      .cls-3, .cls-4 {
        stroke: #1f140f;
        stroke-miterlimit: 10;
      }

      .cls-5 {
        fill: #b2548c;
        stroke-width: 0px;
      }

      .cls-6 {
        letter-spacing: -.03em;
      }

      .cls-4, .cls-7, .cls-8 {
        fill: #1f140f;
      }

      .cls-7 {
        font-family: Serenity-DemiBold, Serenity;
        font-size: 63.39px;
        font-weight: 300;
      }

      .cls-9 {
        letter-spacing: 0em;
      }

      .cls-10 {
        letter-spacing: -.03em;
      }

      .cls-8 {
        font-family: Serenity-ExtraLight, Serenity;
        font-size: 20.1px;
        font-weight: 200;
      }

      .cls-11 {
        letter-spacing: 0em;
      }

      .cls-12 {
        letter-spacing: -.02em;
      }

      .cls-13 {
        letter-spacing: -.02em;
      }
    </style>
  </defs>
  <g id="_Repetición_radial_" data-name="&amp;lt;Repetición radial&amp;gt;">
    <g class="cls-1">
      <path class="cls-5" d="M74.36,144.51c-10.31,6.98-20.9,12.93-33.06,15.54-8.82,1.9-17.68,2.99-26.35-.43-7.41-2.92-12.81-8.08-14.49-16.11-2.17-10.33,3.53-20.6,13.38-24.68,6.85-2.84,14.06-3.42,21.42-3.2,10.27.3,20.09,2.59,29.68,6.1,5.25,1.92,10.18,4.51,14.98,7.34,1.08.64,2.09,1.14,3.44.62,9.59-3.68,19.28-2.76,28.98-.47,1.75.41,3.49.9,5.22,1.38,1.61.45,3.01,1.31,4.18,2.48.97.98,2.36,2.15,1.51,3.54-.78,1.25-2.25.15-3.37-.14-8.45-2.23-16.93-3.83-25.67-1.78-1.08.25-2.22.4-3.3,1.31,9.26,6.26,18.67,11.79,29.22,15.14,8.08,2.57,16.29,4.28,24.85,3.9,7.71-.34,14.22-5.15,15.54-11.63,2.22-10.93-3.67-18.96-14.78-20.56-7.28-1.05-14.35.29-21.47,1.23-3.19.42-6.39.53-9.55.15-5.68-.68-9.21-4.13-10.61-9.78-.99-4.02-1.08-8.1-1.01-12.2.02-1.36-.33-2.32-1.69-2.91-5.08-2.19-9.55-5.37-13.83-8.83-.79-.63-1.46-1.29-2.51-.29-9.78,9.23-21.95,13.41-34.73,16.15-5.42,1.16-10.86,2.56-16.5,1.84-8.79-1.12-12.8-7.11-10.59-15.69,2.03-7.9,6.62-14.33,11.53-20.64,9.66-12.41,22.65-19.23,37.6-23.02,7.18-1.82,14.03-4.49,19.98-9.1,7.17-5.55,10.15-13.67,7.84-21.7-1.67-5.8-5.82-9.04-11.85-9.26-13.2-.49-22.44,9.47-20.81,22.59.43,3.48,1.88,6.59,4.65,8.94,1.06.9,2.12,1.82,2.73,3.12.25.53.49,1.08-.02,1.58-.4.39-.92.32-1.39.18-.39-.11-.78-.27-1.11-.5-7.5-5.19-12.4-12.1-12.39-21.43.02-14.16,13.67-24.4,27.21-20.28,11.35,3.45,18.99,10.9,20.71,23.09,1.06,7.53-1.93,13.79-7.65,18.7-5.57,4.79-12.15,7.64-19.12,9.74-8.22,2.48-16.63,4.51-23.96,9.27-11.95,7.77-20.58,18.33-26.05,31.47-.81,1.95-1.34,4-1.21,6.41,3.02.02,5.91-.2,8.79-.71,10.45-1.83,20.63-4.5,29.99-9.7,3.24-1.8,6.15-4.03,8.96-6.44,1.77-1.52,2.09-2.74.56-4.7-1.97-2.53-3.19-5.51-3.83-8.69-.93-4.65,1.81-8.14,6.55-8.31,8.91-.31,15.03,8.4,11.71,16.61-.99,2.45-2.65,4.49-4.08,6.95,4,3.93,8.76,6.44,14.29,8.54.25-3.37.61-6.42.68-9.47.14-6.06.79-12.07,1.61-18.07.21-1.52.7-3.04,1.31-4.46,1.89-4.38,5.44-5.57,9.6-3.19,4.18,2.39,7.34,6.01,10.7,9.35,7.19,7.13,13.66,14.82,17.18,24.55.76,2.09,1.3,4.23,1.6,6.42.62,4.51-1.45,7.25-5.97,7.84-5.72.74-11.22-.78-16.73-1.91-4.05-.84-8.04-2.01-12.41-3.12-.17,4.35-.65,8.4.58,12.37.57,1.85,2.2,2.25,3.96,2.24,3.78-.03,7.47-.86,11.2-1.35,9.75-1.26,19.18-.57,27.72,4.78,7.54,4.72,12.71,11.18,14.05,20.3,1.38,9.33-3.6,16.92-12.75,19.24-8.14,2.06-16.09.54-24.02-1.26-14.96-3.4-28.1-10.71-40.49-19.41-3.49-2.45-6.14-2.5-9.36-.04-2.14,1.63-4.53,2.93-6.97,4.47M24.37,123.74c-9.82,2.67-16.14,8.71-17.06,19.08-.69,7.81,1.57,11.05,8.29,11.93,7.15.93,14.2.21,21.16-1.47,8.68-2.09,16.65-5.76,24.12-10.63,5.38-3.5,10.86-6.86,16.27-10.27-.38-.79-.95-.93-1.45-1.19-6.88-3.56-14.21-5.81-21.77-7.37-9.72-2-19.44-2.38-29.57-.08M129.51,77.56c-3.24-4.02-7.09-7.47-10.69-11.14-1.48-1.51-2.74-1.07-3.95.29-1.76,1.99-2.3,4.46-2.66,6.99-1.06,7.37-1.28,14.8-1.82,22.22-.08,1.09.06,2.01,1.25,2.32,6.89,1.77,13.82,3.52,20.96,3.58,4.84.04,6.35-2.24,5.49-6.99-1.17-6.46-4.43-11.89-8.58-17.26M83.11,78.33c1.73-1.85,2.69-4.1,3.23-6.51.38-1.69-.34-2.3-2.05-1.65-3.14,1.19-3.79,4.76-1.18,8.17Z"/>
    </g>
  </g>
  <text class="cls-7" transform="translate(143.17 51.73)"><tspan x="0" y="0">R</tspan><tspan class="cls-10" x="36.7" y="0">EV</tspan><tspan x="102.06" y="0">O</tspan><tspan class="cls-2" x="147.95" y="0">L</tspan><tspan class="cls-11" x="174.2" y="0">UCIÓN</tspan><tspan x="59.71" y="76.07">INTERNA</tspan></text>
  <line class="cls-4" x1="207.2" y1="71.52" x2="440.47" y2="71.52"/>
  <text class="cls-8" transform="translate(258.19 162.12)"><tspan class="cls-12" x="0" y="0">C</tspan><tspan class="cls-6" x="11.7" y="0">OA</tspan><tspan class="cls-9" x="36.74" y="0">CHING 10</tspan><tspan class="cls-13" x="112.12" y="0">3</tspan><tspan x="120.76" y="0">2</tspan></text>
  <line class="cls-3" x1="207.2" y1="155.52" x2="246.47" y2="155.52"/>
  <line class="cls-3" x1="403.67" y1="155.52" x2="442.95" y2="155.52"/>
</svg>