<svg width="38" height="37" viewBox="0 0 38 37" fill="none" xmlns="http://www.w3.org/2000/svg">
<path d="M18.7928 9.20679C13.6315 9.20679 9.35498 13.4096 9.35498 18.6446C9.35498 23.8797 13.5578 28.0825 18.7928 28.0825C24.0279 28.0825 28.2307 23.8059 28.2307 18.6446C28.2307 13.4833 23.9541 9.20679 18.7928 9.20679ZM18.7928 24.6907C15.4748 24.6907 12.7467 21.9626 12.7467 18.6446C12.7467 15.3266 15.4748 12.5985 18.7928 12.5985C22.1108 12.5985 24.8389 15.3266 24.8389 18.6446C24.8389 21.9626 22.1108 24.6907 18.7928 24.6907Z" fill="#A65891"/>
<path d="M28.5992 11.1239C29.7801 11.1239 30.7375 10.1666 30.7375 8.98567C30.7375 7.80474 29.7801 6.84741 28.5992 6.84741C27.4183 6.84741 26.4609 7.80474 26.4609 8.98567C26.4609 10.1666 27.4183 11.1239 28.5992 11.1239Z" fill="#A65891"/>
<path d="M34.1291 3.45567C32.2121 1.46488 29.4839 0.432617 26.3872 0.432617H11.1981C4.78336 0.432617 0.506836 4.70914 0.506836 11.1239V26.2392C0.506836 29.4097 1.5391 32.1379 3.60363 34.1287C5.59442 36.0457 8.24881 37.0042 11.2719 37.0042H26.3134C29.4839 37.0042 32.1383 35.972 34.0554 34.1287C36.0462 32.2116 37.0785 29.4835 37.0785 26.3129V11.1239C37.0785 8.02713 36.0462 5.37274 34.1291 3.45567ZM33.8342 26.3129C33.8342 28.5987 33.0231 30.442 31.6959 31.6955C30.3687 32.9489 28.5254 33.6125 26.3134 33.6125H11.2719C9.05988 33.6125 7.21655 32.9489 5.88935 31.6955C4.56216 30.3683 3.89856 28.5249 3.89856 26.2392V11.1239C3.89856 8.91193 4.56216 7.0686 5.88935 5.7414C7.14282 4.48794 9.05988 3.82434 11.2719 3.82434H26.4609C28.6729 3.82434 30.5162 4.48794 31.8434 5.81514C33.0969 7.14233 33.8342 8.98566 33.8342 11.1239V26.3129Z" fill="#A65891"/>
</svg>
